<svg width="306" height="322" viewBox="0 0 306 322" fill="none" xmlns="http://www.w3.org/2000/svg">
<path fill-rule="evenodd" clip-rule="evenodd" d="M172.342 111.954C143.461 111.954 120.049 133.912 120.049 161C120.049 188.088 143.461 210.046 172.342 210.046C201.223 210.046 224.635 188.088 224.635 161C224.635 133.912 201.223 111.954 172.342 111.954ZM122.322 161C122.322 135.09 144.717 114.086 172.342 114.086C199.967 114.086 222.362 135.09 222.362 161C222.362 186.91 199.967 207.914 172.342 207.914C144.717 207.914 122.322 186.91 122.322 161Z" fill="white"/>
<path fill-rule="evenodd" clip-rule="evenodd" d="M172.342 103.957C138.753 103.957 111.523 129.496 111.523 161C111.523 192.504 138.753 218.043 172.342 218.043C205.932 218.043 233.162 192.504 233.162 161C233.162 129.496 205.932 103.957 172.342 103.957ZM113.796 161C113.796 130.674 140.008 106.089 172.342 106.089C204.676 106.089 230.888 130.674 230.888 161C230.888 191.326 204.676 215.911 172.342 215.911C140.008 215.911 113.796 191.326 113.796 161Z" fill="white"/>
<path fill-rule="evenodd" clip-rule="evenodd" d="M102.997 161C102.997 125.08 134.044 95.9603 172.342 95.9603C210.641 95.9603 241.688 125.08 241.688 161C241.688 196.92 210.641 226.04 172.342 226.04C134.044 226.04 102.997 196.92 102.997 161ZM172.342 98.0927C135.299 98.0927 105.27 126.257 105.27 161C105.27 195.743 135.299 223.907 172.342 223.907C209.385 223.907 239.414 195.743 239.414 161C239.414 126.257 209.385 98.0927 172.342 98.0927Z" fill="white"/>
<path fill-rule="evenodd" clip-rule="evenodd" d="M94.4705 161C94.4705 120.663 129.335 87.9636 172.342 87.9636C215.349 87.9636 250.214 120.663 250.214 161C250.214 201.337 215.349 234.036 172.342 234.036C129.335 234.036 94.4705 201.337 94.4705 161ZM172.342 90.096C130.591 90.096 96.7442 121.841 96.7442 161C96.7442 200.159 130.591 231.904 172.342 231.904C214.094 231.904 247.94 200.159 247.94 161C247.94 121.841 214.094 90.096 172.342 90.096Z" fill="white"/>
<path fill-rule="evenodd" clip-rule="evenodd" d="M85.9445 161C85.9445 116.247 124.626 79.9669 172.342 79.9669C220.058 79.9669 258.74 116.247 258.74 161C258.74 205.753 220.058 242.033 172.342 242.033C124.626 242.033 85.9445 205.753 85.9445 161ZM172.342 82.0993C125.882 82.0993 88.2181 117.424 88.2181 161C88.2181 204.576 125.882 239.901 172.342 239.901C218.803 239.901 256.466 204.576 256.466 161C256.466 117.424 218.803 82.0993 172.342 82.0993Z" fill="white"/>
<path fill-rule="evenodd" clip-rule="evenodd" d="M172.342 71.9702C119.917 71.9702 77.4184 111.83 77.4184 161C77.4184 210.17 119.917 250.03 172.342 250.03C224.767 250.03 267.266 210.17 267.266 161C267.266 111.83 224.767 71.9702 172.342 71.9702ZM79.692 161C79.692 113.008 121.173 74.1026 172.342 74.1026C223.511 74.1026 264.992 113.008 264.992 161C264.992 208.992 223.511 247.897 172.342 247.897C121.173 247.897 79.692 208.992 79.692 161Z" fill="white"/>
<path fill-rule="evenodd" clip-rule="evenodd" d="M68.8923 161C68.8923 107.414 115.208 63.9735 172.342 63.9735C229.476 63.9735 275.792 107.414 275.792 161C275.792 214.586 229.476 258.026 172.342 258.026C115.208 258.026 68.8923 214.586 68.8923 161ZM172.342 66.106C116.464 66.106 71.1659 108.591 71.1659 161C71.1659 213.409 116.464 255.894 172.342 255.894C228.22 255.894 273.518 213.409 273.518 161C273.518 108.591 228.22 66.106 172.342 66.106Z" fill="white"/>
<path fill-rule="evenodd" clip-rule="evenodd" d="M172.342 55.9768C110.5 55.9768 60.3662 102.997 60.3662 161C60.3662 219.003 110.5 266.023 172.342 266.023C234.185 266.023 284.318 219.003 284.318 161C284.318 102.997 234.185 55.9768 172.342 55.9768ZM62.6398 161C62.6398 104.175 111.755 58.1093 172.342 58.1093C232.929 58.1093 282.044 104.175 282.044 161C282.044 217.825 232.929 263.891 172.342 263.891C111.755 263.891 62.6398 217.825 62.6398 161Z" fill="white"/>
<path fill-rule="evenodd" clip-rule="evenodd" d="M51.8401 161C51.8401 98.5809 105.791 47.9801 172.342 47.9801C238.894 47.9801 292.844 98.5809 292.844 161C292.844 223.419 238.894 274.02 172.342 274.02C105.791 274.02 51.8401 223.419 51.8401 161ZM172.342 50.1126C107.046 50.1126 54.1137 99.7586 54.1137 161C54.1137 222.241 107.046 271.887 172.342 271.887C237.638 271.887 290.571 222.241 290.571 161C290.571 99.7586 237.638 50.1126 172.342 50.1126Z" fill="white"/>
<path fill-rule="evenodd" clip-rule="evenodd" d="M172.342 39.9834C101.082 39.9834 43.314 94.1644 43.314 161C43.314 227.836 101.082 282.017 172.342 282.017C243.602 282.017 301.37 227.836 301.37 161C301.37 94.1644 243.602 39.9834 172.342 39.9834ZM45.5877 161C45.5877 95.3421 102.338 42.1159 172.342 42.1159C242.347 42.1159 299.097 95.3421 299.097 161C299.097 226.658 242.347 279.884 172.342 279.884C102.338 279.884 45.5877 226.658 45.5877 161Z" fill="white"/>
<path fill-rule="evenodd" clip-rule="evenodd" d="M34.7879 161C34.7879 89.748 96.3731 31.9868 172.342 31.9868C248.311 31.9868 309.896 89.748 309.896 161C309.896 232.252 248.311 290.013 172.342 290.013C96.3731 290.013 34.7879 232.252 34.7879 161ZM172.342 34.1192C97.6287 34.1192 37.0616 90.9257 37.0616 161C37.0616 231.074 97.6287 287.881 172.342 287.881C247.056 287.881 307.623 231.074 307.623 161C307.623 90.9257 247.056 34.1192 172.342 34.1192Z" fill="white"/>
<path fill-rule="evenodd" clip-rule="evenodd" d="M172.342 23.9901C91.6642 23.9901 26.2619 85.3315 26.2619 161C26.2619 236.669 91.6642 298.01 172.342 298.01C253.02 298.01 318.422 236.669 318.422 161C318.422 85.3315 253.02 23.9901 172.342 23.9901ZM28.5355 161C28.5355 86.5092 92.9199 26.1225 172.342 26.1225C251.764 26.1225 316.149 86.5092 316.149 161C316.149 235.491 251.764 295.878 172.342 295.878C92.9199 295.878 28.5355 235.491 28.5355 161Z" fill="white"/>
<path fill-rule="evenodd" clip-rule="evenodd" d="M17.7358 161C17.7358 80.9151 86.9554 15.9934 172.342 15.9934C257.729 15.9934 326.948 80.9151 326.948 161C326.948 241.085 257.729 306.007 172.342 306.007C86.9554 306.007 17.7358 241.085 17.7358 161ZM172.342 18.1258C88.2111 18.1258 20.0094 82.0928 20.0094 161C20.0094 239.907 88.2111 303.874 172.342 303.874C256.473 303.874 324.675 239.907 324.675 161C324.675 82.0928 256.473 18.1258 172.342 18.1258Z" fill="white"/>
<path fill-rule="evenodd" clip-rule="evenodd" d="M172.342 7.99669C82.2466 7.99669 9.20968 76.4986 9.20968 161C9.20968 245.501 82.2466 314.003 172.342 314.003C262.438 314.003 335.475 245.501 335.475 161C335.475 76.4986 262.438 7.99669 172.342 7.99669ZM11.4833 161C11.4833 77.6763 83.5023 10.1291 172.342 10.1291C261.182 10.1291 333.201 77.6763 333.201 161C333.201 244.324 261.182 311.871 172.342 311.871C83.5023 311.871 11.4833 244.324 11.4833 161Z" fill="white"/>
<path fill-rule="evenodd" clip-rule="evenodd" d="M0.683594 161C0.683594 72.0822 77.5377 0 172.342 0C267.147 0 344.001 72.0822 344.001 161C344.001 249.918 267.147 322 172.342 322C77.5377 322 0.683594 249.918 0.683594 161ZM172.342 2.13245C78.7934 2.13245 2.95722 73.2599 2.95722 161C2.95722 248.74 78.7934 319.868 172.342 319.868C265.891 319.868 341.727 248.74 341.727 161C341.727 73.2599 265.891 2.13245 172.342 2.13245Z" fill="white"/>
</svg>
