<svg width="706" height="903" viewBox="0 0 706 903" fill="none" xmlns="http://www.w3.org/2000/svg">
<path opacity="0.07" d="M636.7 430.811C662.7 408.511 678.7 367.011 678.7 311.011C678.7 196.011 611.3 63.8109 528.3 16.8109C445.2 -30.2891 379 24.9109 379.8 140.811C380.2 195.911 396 255.011 421.5 306.411C441.2 346.011 454.1 390.211 458.4 431.311C460.1 448.911 470.6 467.111 482.7 474.111L575.5 527.611C587.7 534.711 598.1 528.311 600 512.811C604.2 476.711 616.9 447.911 636.7 430.811Z" fill="url(#paint0_linear_141_427)"/>
<path opacity="0.07" d="M598.2 620.811V596.211C598.2 583.011 590.6 568.111 581.1 562.411L476.9 502.211C467.4 496.711 459.8 502.911 459.8 516.111V540.711C459.8 560.511 470.2 582.511 483.8 593.311L574.4 645.611C587.8 650.711 598.2 640.411 598.2 620.811Z" fill="url(#paint1_linear_141_427)"/>
<path opacity="0.4" d="M586.6 470.611C612.6 448.311 628.6 406.811 628.6 350.811C628.6 235.811 561.2 103.611 478.2 56.6109C395 9.51094 328.9 64.7109 329.7 180.611C330.1 235.711 345.9 294.811 371.4 346.211C391.1 385.811 404 430.011 408.3 471.111C410 488.711 420.5 506.911 432.6 513.911L525.4 567.411C537.6 574.511 548 568.111 549.9 552.611C554.2 516.511 566.9 487.611 586.6 470.611Z" fill="url(#paint2_linear_141_427)"/>
<path opacity="0.4" d="M548.2 660.611V636.011C548.2 622.811 540.6 607.911 531.1 602.211L426.9 542.011C417.4 536.511 409.8 542.711 409.8 555.911V580.511C409.8 600.311 420.2 622.311 433.8 633.111L524.4 685.411C537.8 690.511 548.2 680.211 548.2 660.611Z" fill="url(#paint3_linear_141_427)"/>
<path opacity="0.3" d="M329.3 669.211L31.7002 497.411L31.8002 652.511L303.1 809.111L329.4 848.011L329.3 669.211Z" fill="url(#paint4_linear_141_427)"/>
<path d="M0 557.911V515.811L112.4 580.611V622.711L0 557.911Z" fill="#F2994A"/>
<path opacity="0.15" d="M252.8 662.811L187.6 625.211V638.811L252.8 676.411V662.811Z" fill="white"/>
<path opacity="0.15" d="M252.8 690.111L127.1 617.611V631.211L252.8 703.711V690.111Z" fill="white"/>
<path opacity="0.15" d="M252.8 717.311L100.5 629.411V643.011L252.8 730.911V717.311Z" fill="white"/>
<path d="M268.9 686.311C268.9 699.111 276.5 713.811 285.8 719.211C295.1 724.611 302.7 718.611 302.7 705.811C302.7 693.011 295.1 678.311 285.8 672.911C276.4 667.511 268.9 673.511 268.9 686.311Z" fill="#F2994A"/>
<path opacity="0.3" d="M352.5 575.911L650 747.711L650.1 902.811L378.8 746.211L352.6 754.811L352.5 575.911Z" fill="url(#paint5_linear_141_427)"/>
<path d="M563.5 775.011V732.911L675.8 797.711V839.811L563.5 775.011Z" fill="#F2C94C"/>
<path opacity="0.15" d="M429 657.911L494.2 695.511V709.111L429 671.511V657.911Z" fill="white"/>
<path opacity="0.15" d="M429 685.111L546.7 753.011V766.611L429 698.811V685.111Z" fill="white"/>
<path opacity="0.15" d="M429 712.411L581.3 800.311V813.911L429 726.011V712.411Z" fill="white"/>
<path d="M412.9 662.811C412.9 675.611 405.3 681.611 396 676.211C386.7 670.811 379.1 656.111 379.1 643.311C379.1 630.511 386.7 624.511 396 629.911C405.4 635.311 412.9 650.011 412.9 662.811Z" fill="#F2C94C"/>
<path opacity="0.15" d="M684.5 562.911L692 579.511L628.8 594.211L694.5 685.711L687 693.611L606.3 581.111L684.5 562.911Z" fill="white"/>
<path d="M705.4 581.511C705.4 594.411 697.8 600.511 688.5 595.211C679.2 589.811 671.6 575.011 671.6 562.011C671.6 549.111 679.2 543.011 688.5 548.311C697.8 553.711 705.4 568.611 705.4 581.511Z" fill="#F2994A"/>
<path d="M705.4 696.111C705.4 709.011 697.8 715.111 688.5 709.811C679.2 704.411 671.6 689.611 671.6 676.611C671.6 663.711 679.2 657.611 688.5 662.911C697.8 668.411 705.4 683.211 705.4 696.111Z" fill="#F2994A"/>
<path d="M633.3 595.711C633.3 608.611 625.7 614.711 616.4 609.411C607.1 604.011 599.5 589.211 599.5 576.211C599.5 563.311 607.1 557.211 616.4 562.511C625.7 567.911 633.3 582.811 633.3 595.711Z" fill="#F2C94C"/>
<path opacity="0.3" d="M161.8 253.211L329.4 349.911V660.411L161.8 563.711V253.211Z" fill="url(#paint6_linear_141_427)"/>
<path opacity="0.15" d="M178.3 437.511L312.9 515.211V528.811L178.3 451.111V437.511Z" fill="white"/>
<path opacity="0.15" d="M187.7 469.511L303.4 536.311V549.911L187.7 483.111V469.511Z" fill="white"/>
<path d="M236.6 525.011L120 457.711V492.411L236.6 559.711V525.011Z" fill="#F2C94C"/>
<path d="M264.7 375.311C264.7 390.311 256 397.411 245.3 391.211C234.6 384.911 225.9 367.711 225.9 352.611C225.9 337.611 234.6 330.511 245.3 336.711C256 343.011 264.7 360.311 264.7 375.311Z" fill="#F2C94C"/>
<path d="M245.2 403.311C227.9 393.211 213.6 402.711 211.1 424.411C210.7 428.211 213.5 433.211 217 435.211L273.4 468.211C276.9 470.211 279.7 468.611 279.3 464.311C276.9 439.511 262.5 413.411 245.2 403.311Z" fill="#F2C94C"/>
<path opacity="0.2" d="M408 884.211C347.5 806.411 391.3 778.211 408 823.811C424.7 797.611 468.5 876.211 408 884.211Z" fill="url(#paint7_linear_141_427)"/>
<defs>
<linearGradient id="paint0_linear_141_427" x1="646.567" y1="146.328" x2="340.522" y2="424.983" gradientUnits="userSpaceOnUse">
<stop stop-color="white"/>
<stop offset="1" stop-color="white" stop-opacity="0"/>
</linearGradient>
<linearGradient id="paint1_linear_141_427" x1="804.944" y1="320.224" x2="498.899" y2="598.879" gradientUnits="userSpaceOnUse">
<stop stop-color="white"/>
<stop offset="1" stop-color="white" stop-opacity="0"/>
</linearGradient>
<linearGradient id="paint2_linear_141_427" x1="596.548" y1="186.109" x2="290.503" y2="464.763" gradientUnits="userSpaceOnUse">
<stop stop-color="white"/>
<stop offset="1" stop-color="white" stop-opacity="0"/>
</linearGradient>
<linearGradient id="paint3_linear_141_427" x1="754.925" y1="360.003" x2="448.881" y2="638.658" gradientUnits="userSpaceOnUse">
<stop stop-color="white"/>
<stop offset="1" stop-color="white" stop-opacity="0"/>
</linearGradient>
<linearGradient id="paint4_linear_141_427" x1="264.409" y1="607.088" x2="110.759" y2="727.391" gradientUnits="userSpaceOnUse">
<stop stop-color="white"/>
<stop offset="1" stop-color="white" stop-opacity="0"/>
</linearGradient>
<linearGradient id="paint5_linear_141_427" x1="480.289" y1="580.963" x2="518.758" y2="892.993" gradientUnits="userSpaceOnUse">
<stop stop-color="white"/>
<stop offset="1" stop-color="white" stop-opacity="0"/>
</linearGradient>
<linearGradient id="paint6_linear_141_427" x1="347.32" y1="280.577" x2="198.553" y2="538.316" gradientUnits="userSpaceOnUse">
<stop stop-color="white"/>
<stop offset="1" stop-color="white" stop-opacity="0"/>
</linearGradient>
<linearGradient id="paint7_linear_141_427" x1="420.773" y1="826.811" x2="376.01" y2="865.481" gradientUnits="userSpaceOnUse">
<stop stop-color="white"/>
<stop offset="1" stop-color="white" stop-opacity="0"/>
</linearGradient>
</defs>
</svg>
