<svg width="36" height="36" viewBox="0 0 36 36" fill="none" xmlns="http://www.w3.org/2000/svg">
<path d="M20.9949 9.3301V1.33787C20.9949 0.922516 20.8094 0.550887 20.5172 0.306048C20.4527 0.253583 20.3838 0.205489 20.3111 0.161768C20.1256 0.0612096 19.9105 0 19.6824 0H1.31245C0.589526 0 0 0.59898 0 1.33787V34.6665C0 35.405 0.589526 36 1.31245 36H19.6824C20.4096 36 20.9953 35.4054 20.9953 34.6665V24.8642H19.1364V29.4987H1.85894V2.16857H19.1359V9.3301H20.9949ZM10.4953 30.666C11.5409 30.666 12.3843 31.5273 12.3843 32.5858C12.3843 33.6439 11.5409 34.5008 10.4953 34.5008C9.45393 34.5008 8.61052 33.6439 8.61052 32.5858C8.61052 31.5273 9.45393 30.666 10.4953 30.666Z" fill="#F09611"/>
<path d="M14.3508 15.8316V21.782C14.3508 22.3019 13.9377 22.726 13.4257 22.726H7.56912C7.05705 22.726 6.63965 22.3019 6.63965 21.782V15.8316C6.63965 15.3113 7.05705 14.8872 7.56912 14.8872H13.4257C13.9377 14.8872 14.3508 15.3113 14.3508 15.8316Z" fill="#F09611"/>
<path d="M36.0006 6.2959V14.1132C36.0006 14.7997 35.4537 15.3549 34.7828 15.3549H30.7766V11.8616C30.7766 10.4669 29.6578 9.33015 28.2851 9.33015H25.8711V6.2959C25.8711 5.61385 26.4176 5.05859 27.0889 5.05859H34.7828C35.4541 5.05859 36.0006 5.61385 36.0006 6.2959Z" fill="#F09611"/>
<path d="M29.9154 11.8616V19.95H26.9849C25.9995 19.95 25.1992 20.7676 25.1992 21.7688V23.9899H17.9785C17.0749 23.9899 16.3477 23.251 16.3477 22.3328V11.8616C16.3477 10.9478 17.0749 10.2046 17.9785 10.2046H28.2845C29.1838 10.2046 29.9154 10.9478 29.9154 11.8616Z" fill="#F09611"/>
<path d="M33.7664 21.7686V27.719C33.7664 28.2393 33.3533 28.6634 32.8413 28.6634H26.9847C26.4727 28.6634 26.0596 28.2393 26.0596 27.719V21.7686C26.0596 21.2483 26.4727 20.8242 26.9847 20.8242H32.8413C33.3533 20.8242 33.7664 21.2483 33.7664 21.7686Z" fill="#F09611"/>
</svg>
