<svg width="32" height="32" viewBox="0 0 32 32" fill="none" xmlns="http://www.w3.org/2000/svg">
<g clip-path="url(#clip0_141_923)">
<path d="M28.7238 8.66392C29.3332 11.0399 29.3332 15.9999 29.3332 15.9999C29.3332 15.9999 29.3332 20.9599 28.7238 23.3359C28.3852 24.6493 27.3945 25.6826 26.1398 26.0319C23.8612 26.6666 15.9998 26.6666 15.9998 26.6666C15.9998 26.6666 8.1425 26.6666 5.85984 26.0319C4.59984 25.6773 3.6105 24.6453 3.27584 23.3359C2.6665 20.9599 2.6665 15.9999 2.6665 15.9999C2.6665 15.9999 2.6665 11.0399 3.27584 8.66392C3.6145 7.35059 4.60517 6.31725 5.85984 5.96792C8.1425 5.33325 15.9998 5.33325 15.9998 5.33325C15.9998 5.33325 23.8612 5.33325 26.1398 5.96792C27.3998 6.32259 28.3892 7.35459 28.7238 8.66392ZM13.3332 20.6666L21.3332 15.9999L13.3332 11.3333V20.6666Z" fill="url(#paint0_linear_141_923)"/>
</g>
<defs>
<linearGradient id="paint0_linear_141_923" x1="2.6665" y1="15.9999" x2="29.3332" y2="15.9999" gradientUnits="userSpaceOnUse">
<stop stop-color="#232526"/>
<stop offset="1" stop-color="#414345"/>
</linearGradient>
<clipPath id="clip0_141_923">
<rect width="32" height="32" fill="white"/>
</clipPath>
</defs>
</svg>
